<svg xmlns="http://www.w3.org/2000/svg" viewBox="0 0 300 100"><g id="Layer_1" data-name="Layer 1"><polygon points="59.55 53.27 63.65 63.55 67.49 67.19 69.64 71.68 69.83 75.78 67.75 76.36 66.38 77.86 71.59 77.99 72.96 76.82 73.22 71.61 73.02 66.28 62.42 53.53 59.55 53.27" fill="#216b67"/><polyline points="62.41 53.54 39.25 44.81 36.91 61.08 52.07 59.32 62.41 53.54" fill="#d3c83b"/><polygon points="62.41 53.54 60.2 35.26 45.43 36.23 34.57 33.76 39.25 44.82 62.41 53.54" fill="#dd5c48"/><polygon points="13.88 39.34 20.19 49.36 20.91 53.2 23.05 57.04 29.17 60.23 39.25 44.81 13.88 39.34" fill="#f1b550"/><polygon points="29.17 60.23 39.25 44.81 36.91 61.08 32.62 72.33 31.84 79.42 30.6 80.4 25.2 80.53 25.53 79.23 27.8 77.53 28.91 73.7 29.17 60.23" fill="#30acb5"/><polygon points="23.05 57.04 24.29 65.5 24.68 73.83 23.96 76.82 21.75 77.28 20.13 79.03 25.53 79.23 27.8 77.53 28.91 73.7 29.17 60.23 23.05 57.04" fill="#216b67"/><polygon points="13.88 39.34 10.17 40.97 7.12 40.06 7.57 37.33 8.81 36.16 4.71 35.18 3.41 33.42 3.15 32.25 5.88 30.82 9 28.48 8.68 27.5 10.5 24.9 12.84 23.34 14.4 22.56 16.09 22.75 19.61 23.14 20.52 25.75 24.42 28.55 25.46 27.11 30.99 31.99 34.57 33.75 39.25 44.81 13.88 39.34" fill="#88924c"/><polygon points="13.88 39.34 10.17 40.97 7.12 40.06 7.57 37.33 8.81 36.16 4.71 35.18 3.41 33.42 3.15 32.25 5.88 30.82 9 28.48 13.88 39.34" fill="#726b64"/><polygon points="17.04 34.2 13.88 39.34 9 28.48 17.04 34.2" fill="#726b64"/><polygon points="25.46 27.11 24.55 18.53 22.99 18.85 19.61 23.14 20.52 25.75 24.42 28.55 25.46 27.11" fill="#726b64"/><polygon points="14.4 22.56 16.09 22.75 12.58 17.03 11.86 23.99 14.4 22.56" fill="#726b64"/><polyline points="73.8 37.78 79.4 43.05 82.23 56.59 85.81 60.2 86.94 64.75 82.49 64.91 78.39 61.43 73.8 37.78" fill="#943666"/><polyline points="62.41 53.54 79.79 50.67 77.67 63.03 80.6 68.33 80.47 72.49 81.41 79.23 80.76 80.27 75.23 80.59 75.79 78.51 77.44 77.76 77.44 72.49 73.51 66.64 70.61 64.36 62.41 53.54 79.79 50.67" fill="#30acb5"/><polygon points="62.41 53.54 60.2 35.26 73.8 37.78 78.22 44.49 79.79 50.67 62.41 53.54" fill="#2e7aa1"/><path d="M134.63,36.34V80h-4.55V59.86H102.75V80H98.13V36.34h4.62V55.81h27.33V36.34Z" fill="#fff"/><path d="M166.05,75.3a11.58,11.58,0,0,0,4.4-3.21L172.94,75a14.09,14.09,0,0,1-5.42,4,19.71,19.71,0,0,1-16.17-.78,15.5,15.5,0,0,1-6.11-6,17,17,0,0,1-2.18-8.61A17.54,17.54,0,0,1,145.15,55a15,15,0,0,1,5.77-5.92A16.37,16.37,0,0,1,159.28,47a15.73,15.73,0,0,1,7.89,2,15,15,0,0,1,5.62,5.56A16.61,16.61,0,0,1,175,62.61l-26.95,5.24a11.63,11.63,0,0,0,4.52,6.27,13.34,13.34,0,0,0,7.83,2.28A14.38,14.38,0,0,0,166.05,75.3Zm-12.92-23a11.16,11.16,0,0,0-4.24,4.43,13.56,13.56,0,0,0-1.53,6.52,11.24,11.24,0,0,0,.06,1.38l23.15-4.5a11.44,11.44,0,0,0-3.8-6.77,11.08,11.08,0,0,0-7.49-2.65A11.94,11.94,0,0,0,153.13,52.34Z" fill="#fff"/><path d="M202.18,75.3a11.58,11.58,0,0,0,4.4-3.21L209.07,75a14.12,14.12,0,0,1-5.43,4,19.68,19.68,0,0,1-16.16-.78,15.5,15.5,0,0,1-6.11-6,17,17,0,0,1-2.19-8.61A17.65,17.65,0,0,1,181.27,55,15.14,15.14,0,0,1,187,49.07,16.43,16.43,0,0,1,195.41,47a15.73,15.73,0,0,1,7.89,2,15,15,0,0,1,5.62,5.56,16.61,16.61,0,0,1,2.21,8.11l-27,5.24a11.65,11.65,0,0,0,4.53,6.27,13.34,13.34,0,0,0,7.83,2.28A14.38,14.38,0,0,0,202.18,75.3Zm-12.92-23A11.16,11.16,0,0,0,185,56.77a13.56,13.56,0,0,0-1.53,6.52,11.24,11.24,0,0,0,.06,1.38l23.15-4.5a11.41,11.41,0,0,0-3.81-6.77,11,11,0,0,0-7.48-2.65A11.94,11.94,0,0,0,189.26,52.34Z" fill="#fff"/><path d="M221,77.83a9.56,9.56,0,0,1-2.4-6.92V33.72h4.43V70.53A6.44,6.44,0,0,0,224.42,75a5.26,5.26,0,0,0,4.12,1.53,7.32,7.32,0,0,0,3-.56l.32,3.68a11.85,11.85,0,0,1-4,.69A9,9,0,0,1,221,77.83Z" fill="#fff"/><path d="M255.4,75.3a11.5,11.5,0,0,0,4.4-3.21L262.3,75a14.2,14.2,0,0,1-5.43,4,19.68,19.68,0,0,1-16.16-.78,15.59,15.59,0,0,1-6.12-6,17,17,0,0,1-2.18-8.61A17.54,17.54,0,0,1,234.5,55a15,15,0,0,1,5.77-5.92A16.37,16.37,0,0,1,248.63,47a15.73,15.73,0,0,1,7.89,2,14.92,14.92,0,0,1,5.62,5.56,16.61,16.61,0,0,1,2.21,8.11l-27,5.24a11.63,11.63,0,0,0,4.52,6.27,13.39,13.39,0,0,0,7.83,2.28A14.38,14.38,0,0,0,255.4,75.3Zm-12.92-23a11.16,11.16,0,0,0-4.24,4.43,13.56,13.56,0,0,0-1.53,6.52,11.24,11.24,0,0,0,.06,1.38l23.15-4.5a11.39,11.39,0,0,0-3.8-6.77,11.08,11.08,0,0,0-7.49-2.65A11.94,11.94,0,0,0,242.48,52.34Z" fill="#fff"/><path d="M280.73,48.63A15.85,15.85,0,0,1,288.38,47v4.3l-1.06-.06a10.5,10.5,0,0,0-8.12,3.18c-1.95,2.12-2.93,5.1-2.93,8.92V80h-4.43V47.2h4.24v6.42A10.74,10.74,0,0,1,280.73,48.63Z" fill="#fff"/><path d="M290.76,78.6h-.85v2.18h-.31V78.6h-.85v-.28h2Z" fill="#fff"/><path d="M293.5,80.78v-1.9l-.82,1.46h-.18l-.82-1.46v1.9h-.31V78.32h.33l.89,1.6.89-1.6h.33v2.46Z" fill="#fff"/></g></svg>