<svg id="Layer_3" data-name="Layer 3" xmlns="http://www.w3.org/2000/svg" viewBox="0 0 500 500"><defs><style>.cls-1{fill:#fff;}.cls-2{fill:#216b67;}.cls-3{fill:#d3c83b;}.cls-4{fill:#dd5c48;}.cls-5{fill:#f1b550;}.cls-6{fill:#30acb5;}.cls-7{fill:#88924c;}.cls-8{fill:#726b64;}.cls-9{fill:#943666;}.cls-10{fill:#2e7aa1;}</style></defs><circle class="cls-1" cx="251.34" cy="250.39" r="242.6"/><polygon class="cls-2" points="312.32 270.64 332.06 320.15 350.54 337.69 360.88 359.31 361.82 379.05 351.79 381.87 345.21 389.07 370.28 389.7 376.86 384.06 378.11 359 377.17 333.31 326.1 271.9 312.32 270.64"/><polyline class="cls-3" points="326.09 271.95 214.57 229.92 203.29 308.24 276.29 299.78 326.09 271.95"/><polygon class="cls-4" points="326.09 271.95 315.44 183.91 244.32 188.61 192 176.7 214.56 229.96 326.09 271.95"/><polygon class="cls-5" points="92.38 203.6 122.77 251.85 126.22 270.33 136.56 288.82 166 304.17 214.57 229.92 92.38 203.6"/><polygon class="cls-6" points="166 304.17 214.57 229.92 203.29 308.24 182.61 362.44 178.85 396.59 172.9 401.29 146.89 401.92 148.46 395.65 159.43 387.51 164.75 369.02 166 304.17"/><polygon class="cls-2" points="136.56 288.82 142.51 329.55 144.39 369.65 140.94 384.06 130.29 386.25 122.46 394.71 148.46 395.65 159.43 387.51 164.75 369.02 166 304.17 136.56 288.82"/><polygon class="cls-7" points="92.38 203.6 74.52 211.43 59.8 207.04 61.99 193.89 67.94 188.25 48.2 183.55 41.94 175.09 40.68 169.45 53.84 162.56 68.88 151.28 67.31 146.58 76.09 134.04 87.37 126.53 94.89 122.77 103.03 123.71 119.95 125.59 124.34 138.12 143.13 151.59 148.15 144.7 174.78 168.19 192.01 176.65 214.57 229.92 92.38 203.6"/><polygon class="cls-8" points="92.38 203.6 74.52 211.43 59.8 207.04 61.99 193.89 67.94 188.25 48.2 183.55 41.94 175.09 40.68 169.45 53.84 162.56 68.88 151.28 92.38 203.6"/><polygon class="cls-8" points="107.57 178.85 92.38 203.6 68.88 151.28 107.57 178.85"/><polygon class="cls-8" points="148.15 144.7 143.76 103.34 136.24 104.91 119.95 125.59 124.34 138.12 143.13 151.59 148.15 144.7"/><polygon class="cls-8" points="94.89 122.77 103.03 123.71 86.11 96.14 82.67 129.66 94.89 122.77"/><polyline class="cls-9" points="380.93 196.08 407.88 221.46 421.5 286.62 438.74 304.01 444.22 325.94 422.76 326.73 403.02 309.96 380.93 196.08"/><polyline class="cls-6" points="326.09 271.95 409.75 258.11 399.57 317.64 413.67 343.18 413.05 363.23 417.59 395.65 414.45 400.67 387.82 402.23 390.49 392.21 398.48 388.6 398.48 363.23 379.52 335.03 365.58 324.06 326.09 271.95 409.75 258.11"/><polygon class="cls-10" points="326.09 271.95 315.44 183.91 380.93 196.08 402.23 228.4 409.75 258.11 326.09 271.95"/></svg>