<svg xmlns="http://www.w3.org/2000/svg" viewBox="0 0 500 500"><defs><style>.cls-1{fill:#216b67;}.cls-2{fill:#d3c83b;}.cls-3{fill:#dd5c48;}.cls-4{fill:#f1b550;}.cls-5{fill:#30acb5;}.cls-6{fill:#88924c;}.cls-7{fill:#726b64;}.cls-8{fill:#943666;}.cls-9{fill:#2e7aa1;}.cls-10{font-size:90px;font-family:MontserratAlternates-Regular, Montserrat Alternates;letter-spacing:-0.03em;}.cls-11{letter-spacing:-0.03em;}.cls-12{letter-spacing:-0.03em;}.cls-13{font-size:5px;font-family:MyriadPro-Regular, Myriad Pro;letter-spacing:0.07em;}</style></defs><g id="Layer_1" data-name="Layer 1"><polygon class="cls-1" points="116.07 245.99 121.98 260.82 127.52 266.07 130.61 272.55 130.9 278.46 127.89 279.3 125.92 281.46 133.43 281.65 135.4 279.96 135.78 272.45 135.49 264.76 120.2 246.37 116.07 245.99"/><polyline class="cls-2" points="120.19 246.38 86.79 233.79 83.41 257.25 105.28 254.72 120.19 246.38"/><polygon class="cls-3" points="120.19 246.38 117 220.01 95.7 221.42 80.03 217.85 86.79 233.81 120.19 246.38"/><polygon class="cls-4" points="50.19 225.91 59.3 240.36 60.33 245.9 63.42 251.43 72.25 256.03 86.79 233.79 50.19 225.91"/><polygon class="cls-5" points="72.25 256.03 86.79 233.79 83.41 257.25 77.22 273.49 76.09 283.71 74.31 285.12 66.52 285.31 66.99 283.43 70.27 280.99 71.87 275.46 72.25 256.03"/><polygon class="cls-1" points="63.42 251.43 65.21 263.63 65.77 275.64 64.74 279.96 61.55 280.62 59.2 283.15 66.99 283.43 70.27 280.99 71.87 275.46 72.25 256.03 63.42 251.43"/><polygon class="cls-6" points="50.19 225.91 44.84 228.25 40.43 226.94 41.09 223 42.87 221.31 36.96 219.9 35.08 217.37 34.71 215.68 38.65 213.62 43.16 210.24 42.69 208.83 45.31 205.07 48.69 202.82 50.94 201.7 53.38 201.98 58.45 202.54 59.76 206.29 65.39 210.33 66.9 208.27 74.87 215.3 80.03 217.84 86.79 233.79 50.19 225.91"/><polygon class="cls-7" points="50.19 225.91 44.84 228.25 40.43 226.94 41.09 223 42.87 221.31 36.96 219.9 35.08 217.37 34.71 215.68 38.65 213.62 43.16 210.24 50.19 225.91"/><polygon class="cls-7" points="54.74 218.49 50.19 225.91 43.16 210.24 54.74 218.49"/><polygon class="cls-7" points="66.9 208.27 65.58 195.88 63.33 196.35 58.45 202.54 59.76 206.29 65.39 210.33 66.9 208.27"/><polygon class="cls-7" points="50.94 201.7 53.38 201.98 48.32 193.72 47.28 203.76 50.94 201.7"/><polyline class="cls-8" points="136.62 223.66 144.69 231.26 148.77 250.78 153.93 255.98 155.58 262.55 149.15 262.79 143.24 257.77 136.62 223.66"/><polyline class="cls-5" points="120.19 246.38 145.25 242.24 142.2 260.07 146.43 267.71 146.24 273.72 147.6 283.43 146.66 284.93 138.68 285.4 139.48 282.4 141.88 281.32 141.88 273.72 136.2 265.27 132.02 261.99 120.19 246.38 145.25 242.24"/><polygon class="cls-9" points="120.19 246.38 117 220.01 136.62 223.66 143 233.34 145.25 242.24 120.19 246.38"/><text class="cls-10" transform="translate(161.45 284.57)">Hee<tspan class="cls-11" x="175.14" y="0">l</tspan><tspan class="cls-12" x="199.8" y="0">er</tspan></text><text class="cls-13" transform="translate(447.04 285.57)">TM</text></g></svg>