<svg xmlns="http://www.w3.org/2000/svg" viewBox="0 0 500 500"><defs><style>.cls-1{fill:#216b67;}.cls-2{fill:#d3c83b;}.cls-3{fill:#dd5c48;}.cls-4{fill:#f1b550;}.cls-5{fill:#30acb5;}.cls-6{fill:#88924c;}.cls-7{fill:#726b64;}.cls-8{fill:#943666;}.cls-9{fill:#2e7aa1;}.cls-10{font-size:90px;font-family:MontserratAlternates-Regular, Montserrat Alternates;letter-spacing:-0.03em;}.cls-10,.cls-13{fill:#fff;}.cls-11{letter-spacing:-0.03em;}.cls-12{letter-spacing:-0.03em;}.cls-13{font-size:5px;font-family:MyriadPro-Regular, Myriad Pro;letter-spacing:0.07em;}</style></defs><g id="Layer_1" data-name="Layer 1"><polygon class="cls-1" points="121.83 262.87 127.74 277.7 133.28 282.96 136.37 289.43 136.65 295.34 133.65 296.19 131.68 298.35 139.19 298.53 141.16 296.84 141.53 289.34 141.25 281.64 125.95 263.25 121.83 262.87"/><polyline class="cls-2" points="125.95 263.26 92.55 250.67 89.17 274.13 111.03 271.6 125.95 263.26"/><polygon class="cls-3" points="125.95 263.26 122.76 236.89 101.46 238.3 85.79 234.74 92.55 250.69 125.95 263.26"/><polygon class="cls-4" points="55.95 242.79 65.05 257.24 66.08 262.78 69.18 268.32 78 272.92 92.55 250.67 55.95 242.79"/><polygon class="cls-5" points="78 272.92 92.55 250.67 89.17 274.13 82.98 290.37 81.85 300.6 80.07 302 72.28 302.19 72.75 300.32 76.03 297.88 77.63 292.34 78 272.92"/><polygon class="cls-1" points="69.18 268.32 70.97 280.52 71.53 292.53 70.5 296.84 67.31 297.5 64.96 300.04 72.75 300.32 76.03 297.88 77.63 292.34 78 272.92 69.18 268.32"/><polygon class="cls-6" points="55.95 242.79 50.6 245.14 46.19 243.82 46.85 239.88 48.63 238.19 42.72 236.79 40.84 234.25 40.47 232.56 44.41 230.5 48.91 227.12 48.44 225.71 51.07 221.96 54.45 219.71 56.7 218.58 59.14 218.86 64.21 219.43 65.52 223.18 71.15 227.21 72.65 225.15 80.63 232.19 85.79 234.72 92.55 250.67 55.95 242.79"/><polygon class="cls-7" points="55.95 242.79 50.6 245.14 46.19 243.82 46.85 239.88 48.63 238.19 42.72 236.79 40.84 234.25 40.47 232.56 44.41 230.5 48.91 227.12 55.95 242.79"/><polygon class="cls-7" points="60.5 235.38 55.95 242.79 48.91 227.12 60.5 235.38"/><polygon class="cls-7" points="72.65 225.15 71.34 212.76 69.09 213.23 64.21 219.43 65.52 223.18 71.15 227.21 72.65 225.15"/><polygon class="cls-7" points="56.7 218.58 59.14 218.86 54.07 210.6 53.04 220.65 56.7 218.58"/><polyline class="cls-8" points="142.38 240.54 150.45 248.14 154.53 267.66 159.69 272.87 161.33 279.44 154.91 279.67 148.99 274.65 142.38 240.54"/><polyline class="cls-5" points="125.95 263.26 151.01 259.12 147.96 276.95 152.18 284.6 152 290.6 153.36 300.32 152.42 301.82 144.44 302.29 145.24 299.28 147.63 298.2 147.63 290.6 141.96 282.16 137.78 278.87 125.95 263.26 151.01 259.12"/><polygon class="cls-9" points="125.95 263.26 122.76 236.89 142.38 240.54 148.75 250.22 151.01 259.12 125.95 263.26"/><text class="cls-10" transform="translate(167.21 301.45)">Hee<tspan class="cls-11" x="175.14" y="0">l</tspan><tspan class="cls-12" x="199.8" y="0">er</tspan></text><text class="cls-13" transform="translate(452.8 302.46)">TM</text><text class="cls-13" transform="translate(448.08 300.55)">TM</text></g></svg>