<svg xmlns="http://www.w3.org/2000/svg" viewBox="0 0 500 120"><g id="Layer_1" data-name="Layer 1"><polygon points="116.07 64.99 121.98 79.82 127.52 85.07 130.61 91.55 130.9 97.46 127.89 98.3 125.92 100.46 133.43 100.65 135.4 98.96 135.78 91.45 135.49 83.76 120.2 65.36 116.07 64.99" fill="#216b67"/><polyline points="120.19 65.38 86.79 52.79 83.41 76.25 105.28 73.72 120.19 65.38" fill="#d3c83b"/><polygon points="120.19 65.38 117 39.01 95.7 40.42 80.03 36.85 86.79 52.8 120.19 65.38" fill="#dd5c48"/><polygon points="50.19 44.91 59.3 59.36 60.33 64.9 63.42 70.43 72.25 75.03 86.79 52.79 50.19 44.91" fill="#f1b550"/><polygon points="72.25 75.03 86.79 52.79 83.41 76.25 77.22 92.48 76.09 102.71 74.31 104.12 66.52 104.31 66.99 102.43 70.27 99.99 71.87 94.46 72.25 75.03" fill="#30acb5"/><polygon points="63.42 70.43 65.21 82.63 65.77 94.64 64.74 98.96 61.55 99.62 59.2 102.15 66.99 102.43 70.27 99.99 71.87 94.46 72.25 75.03 63.42 70.43" fill="#216b67"/><polygon points="50.19 44.91 44.84 47.25 40.43 45.94 41.09 42 42.87 40.31 36.96 38.9 35.08 36.37 34.71 34.68 38.65 32.62 43.16 29.24 42.69 27.83 45.31 24.07 48.69 21.82 50.94 20.7 53.38 20.98 58.45 21.54 59.76 25.3 65.39 29.33 66.9 27.27 74.87 34.3 80.03 36.84 86.79 52.79 50.19 44.91" fill="#88924c"/><polygon points="50.19 44.91 44.84 47.25 40.43 45.94 41.09 42 42.87 40.31 36.96 38.9 35.08 36.37 34.71 34.68 38.65 32.62 43.16 29.24 50.19 44.91" fill="#726b64"/><polygon points="54.74 37.49 50.19 44.91 43.16 29.24 54.74 37.49" fill="#726b64"/><polygon points="66.9 27.27 65.58 14.88 63.33 15.35 58.45 21.54 59.76 25.3 65.39 29.33 66.9 27.27" fill="#726b64"/><polygon points="50.94 20.7 53.38 20.98 48.32 12.72 47.28 22.76 50.94 20.7" fill="#726b64"/><polyline points="136.62 42.66 144.69 50.26 148.77 69.78 153.93 74.98 155.58 81.55 149.15 81.79 143.24 76.77 136.62 42.66" fill="#943666"/><polyline points="120.19 65.38 145.25 61.24 142.2 79.07 146.43 86.71 146.24 92.72 147.6 102.43 146.66 103.93 138.68 104.4 139.48 101.4 141.88 100.32 141.88 92.72 136.2 84.27 132.02 80.99 120.19 65.38 145.25 61.24" fill="#30acb5"/><polygon points="120.19 65.38 117 39.01 136.62 42.66 143 52.34 145.25 61.24 120.19 65.38" fill="#2e7aa1"/><path d="M224.36,40.57v63h-6.57V74.5H178.37v29.07h-6.66v-63h6.66V68.65h39.42V40.57Z"/><path d="M269.67,96.77A16.7,16.7,0,0,0,276,92.14l3.6,4.14a20.34,20.34,0,0,1-7.83,5.76,28.33,28.33,0,0,1-23.31-1.13,22.29,22.29,0,0,1-8.82-8.59,24.5,24.5,0,0,1-3.15-12.42,25.37,25.37,0,0,1,3-12.42,21.75,21.75,0,0,1,8.33-8.55,23.71,23.71,0,0,1,12.06-3.06,22.67,22.67,0,0,1,11.38,2.88,21.62,21.62,0,0,1,8.1,8,24,24,0,0,1,3.2,11.7L243.71,86a16.67,16.67,0,0,0,6.53,9,19.25,19.25,0,0,0,11.29,3.29A20.55,20.55,0,0,0,269.67,96.77ZM251,63.65A16.07,16.07,0,0,0,244.93,70a19.46,19.46,0,0,0-2.21,9.41,15.52,15.52,0,0,0,.09,2L276.2,75a16.46,16.46,0,0,0-5.49-9.77,15.9,15.9,0,0,0-10.8-3.82A17.24,17.24,0,0,0,251,63.65Z"/><path d="M321.78,96.77a16.7,16.7,0,0,0,6.35-4.63l3.6,4.14A20.34,20.34,0,0,1,323.9,102a28.33,28.33,0,0,1-23.31-1.13,22.29,22.29,0,0,1-8.82-8.59,24.5,24.5,0,0,1-3.15-12.42,25.37,25.37,0,0,1,3-12.42A21.75,21.75,0,0,1,300,58.93,23.71,23.71,0,0,1,312,55.87a22.67,22.67,0,0,1,11.38,2.88,21.62,21.62,0,0,1,8.1,8,24,24,0,0,1,3.2,11.7L295.82,86a16.7,16.7,0,0,0,6.52,9,19.31,19.31,0,0,0,11.3,3.29A20.55,20.55,0,0,0,321.78,96.77ZM303.15,63.65A16.09,16.09,0,0,0,297,70a19.57,19.57,0,0,0-2.2,9.41,15.52,15.52,0,0,0,.09,2L328.31,75a16.46,16.46,0,0,0-5.49-9.77A15.9,15.9,0,0,0,312,61.36,17.21,17.21,0,0,0,303.15,63.65Z"/><path d="M349,100.42q-3.46-3.6-3.46-10V36.79h6.39v53.1q0,4.23,2,6.43t5.94,2.21a10.47,10.47,0,0,0,4.32-.81l.45,5.31a17.1,17.1,0,0,1-5.76,1Q352.43,104,349,100.42Z"/><path d="M398.55,96.77a16.7,16.7,0,0,0,6.35-4.63l3.6,4.14a20.34,20.34,0,0,1-7.83,5.76,28.33,28.33,0,0,1-23.31-1.13,22.29,22.29,0,0,1-8.82-8.59,24.5,24.5,0,0,1-3.15-12.42,25.37,25.37,0,0,1,3-12.42,21.75,21.75,0,0,1,8.33-8.55,23.71,23.71,0,0,1,12.06-3.06,22.67,22.67,0,0,1,11.38,2.88,21.62,21.62,0,0,1,8.1,8,24,24,0,0,1,3.2,11.7L372.59,86a16.7,16.7,0,0,0,6.52,9,19.31,19.31,0,0,0,11.3,3.29A20.55,20.55,0,0,0,398.55,96.77ZM379.92,63.65A16.09,16.09,0,0,0,373.8,70a19.57,19.57,0,0,0-2.2,9.41,15.52,15.52,0,0,0,.09,2L405.08,75a16.46,16.46,0,0,0-5.49-9.77,15.9,15.9,0,0,0-10.8-3.82A17.21,17.21,0,0,0,379.92,63.65Z"/><path d="M435.09,58.3a22.8,22.8,0,0,1,11-2.43v6.21L444.59,62q-7.47,0-11.7,4.59t-4.23,12.87v24.12h-6.39V56.23h6.12V65.5A15.47,15.47,0,0,1,435.09,58.3Z"/><path d="M449.56,101.52h-1.23v3.15h-.44v-3.15h-1.23v-.4h2.9Z"/><path d="M453.5,104.67v-2.74l-1.18,2.1h-.25l-1.19-2.1v2.74h-.45v-3.55h.48l1.28,2.31,1.29-2.31H454v3.55Z"/></g></svg>